<svg width="70" height="60" viewBox="0 0 70 60" fill="none" xmlns="http://www.w3.org/2000/svg">
<path d="M6.52746 10.3583L4.02746 37.4483C3.67746 41.2883 6.51747 44.7083 10.3575 45.0583L47.2175 48.4583C51.0675 48.8083 54.4775 45.9783 54.8275 42.1283L57.3175 15.0383C57.4875 13.1783 56.9275 11.3583 55.7275 9.91828C54.5275 8.47828 52.8475 7.59828 50.9875 7.41828L14.1275 4.01828C13.6875 3.97828 13.2575 3.97828 12.8375 4.01828C9.54746 4.32828 6.82746 6.93828 6.51746 10.3483L6.52746 10.3583Z" fill="#191919"/>
<path d="M48.8975 52.4378C48.2275 52.4978 47.5375 52.4978 46.8475 52.4378L9.98747 49.0378C3.94747 48.4778 -0.512533 43.1178 0.0474673 37.0778L2.54747 9.98779C2.81747 7.05779 4.20747 4.41779 6.46747 2.53779C8.72747 0.657794 11.5775 -0.222211 14.5075 0.0477888L51.3675 3.44779C57.4075 4.00779 61.8675 9.36779 61.3075 15.4078L58.8075 42.4978C58.5375 45.4278 57.1475 48.0678 54.8875 49.9478C53.1575 51.3878 51.0875 52.2378 48.8975 52.4378ZM12.6475 2.03779C10.8575 2.20779 9.15747 2.90779 7.74747 4.0778C5.89747 5.61779 4.75747 7.77779 4.53747 10.1778L2.03747 37.2678C1.57747 42.2078 5.22747 46.5978 10.1775 47.0578L47.0375 50.4578C49.4375 50.6778 51.7675 49.9578 53.6175 48.4178C55.4675 46.8778 56.6075 44.7178 56.8275 42.3278L59.3275 15.2378C59.7775 10.2978 56.1275 5.90779 51.1875 5.44779L14.3275 2.04779C13.7675 1.99779 13.2075 1.99779 12.6475 2.04779V2.03779Z" fill="#3A3A3A"/>
<path d="M51.1774 5.43749L14.3174 2.0375C13.7574 1.9875 13.1974 1.9875 12.6374 2.0375C10.8474 2.2075 9.1474 2.9075 7.7374 4.0775C5.8874 5.6175 4.7474 7.7775 4.5274 10.1775L2.0274 37.2675C1.5674 42.2075 5.2174 46.5975 10.1674 47.0575L47.0274 50.4575C49.4274 50.6775 51.7574 49.9575 53.6074 48.4175C55.4574 46.8775 56.5974 44.7175 56.8174 42.3275L59.3174 15.2375C59.7674 10.2975 56.1174 5.9075 51.1774 5.4475V5.43749ZM57.3174 15.0375L54.8274 42.1275C54.4674 45.9675 51.0574 48.8075 47.2174 48.4575L10.3574 45.0575C6.5174 44.7075 3.6774 41.2875 4.0274 37.4475L6.5274 10.3575C6.8374 6.9475 9.5574 4.3375 12.8474 4.0275C13.2674 3.9875 13.6974 3.9875 14.1374 4.0275L50.9974 7.4275C52.8574 7.5975 54.5474 8.4875 55.7374 9.9275C56.9374 11.3675 57.4974 13.1875 57.3274 15.0475L57.3174 15.0375Z" fill="black" fill-opacity="0.08"/>
<path d="M10.1061 27.5869L9.26819 36.6884C9.1163 38.3383 10.3307 39.7989 11.9805 39.9508L16.9595 40.4092C18.6094 40.5611 20.07 39.3467 20.2219 37.6968L21.0598 28.5953C21.2117 26.9455 19.9973 25.4848 18.3474 25.3329L13.3685 24.8746C11.7186 24.7227 10.258 25.937 10.1061 27.5869Z" fill="#606060"/>
<path d="M25.9982 18.4899L24.1949 38.0771C24.0431 39.727 25.2574 41.1876 26.9073 41.3395L31.8862 41.7979C33.5361 41.9497 34.9967 40.7354 35.1486 39.0855L36.9519 19.4983C37.1038 17.8485 35.8894 16.3878 34.2395 16.236L29.2606 15.7776C27.6107 15.6257 26.1501 16.84 25.9982 18.4899Z" fill="#484848"/>
<path d="M41.4123 14.695L39.1342 39.4404C38.9823 41.0902 40.1966 42.5509 41.8465 42.7028L46.8254 43.1611C48.4753 43.313 49.9359 42.0987 50.0878 40.4488L52.366 15.7034C52.5179 14.0536 51.3035 12.5929 49.6536 12.441L44.6747 11.9827C43.0248 11.8308 41.5642 13.0451 41.4123 14.695Z" fill="#606060"/>
<circle cx="58" cy="48" r="12" fill="#6E6E6E"/>
<path fill-rule="evenodd" clip-rule="evenodd" d="M54.6558 40.5001C55.0422 40.495 55.3815 40.7563 55.4752 41.1312L58.0832 51.563L60.5369 43.5883C60.6435 43.242 60.9615 43.0043 61.3237 43.0001C61.686 42.9958 62.0094 43.2261 62.124 43.5698L63.6007 48H65.5001C65.9603 48 66.3334 48.3731 66.3334 48.8333C66.3334 49.2936 65.9603 49.6667 65.5001 49.6667H63.0001C62.6414 49.6667 62.3229 49.4371 62.2095 49.0969L61.3652 46.5638L58.7966 54.9117C58.6865 55.2693 58.3517 55.5097 57.9778 55.4997C57.6038 55.4897 57.2824 55.2317 57.1916 54.8688L54.7145 44.9601L53.8136 49.0141C53.7288 49.3954 53.3907 49.6667 53.0001 49.6667H50.5001C50.0398 49.6667 49.6667 49.2936 49.6667 48.8333C49.6667 48.3731 50.0398 48 50.5001 48H52.3316L53.8533 41.1526C53.9371 40.7753 54.2693 40.5052 54.6558 40.5001Z" fill="white" fill-opacity="0.9294"/>
</svg>
