<svg width="120" height="120" viewBox="0 0 120 120" fill="none" xmlns="http://www.w3.org/2000/svg">
<g clip-path="url(#clip0_4344_170747)">
<path d="M54.5102 62.755C53.6951 58.1319 49.2865 55.045 44.6634 55.8602L11.1799 61.7642C6.55681 62.5794 3.46988 66.988 4.28505 71.6111L8.45261 95.2465C9.26779 99.8696 13.6764 102.957 18.2995 102.141L51.7829 96.2373C56.406 95.4221 59.493 91.0135 58.6778 86.3904L54.5102 62.755Z" fill="#F9F9F9" stroke="white" stroke-width="3"/>
<rect x="9.06396" y="72.7993" width="19" height="20" rx="3" transform="rotate(-10 9.06396 72.7993)" fill="#8D8D8D"/>
<rect x="29.7449" y="69.1527" width="9" height="20" rx="2" transform="rotate(-10 29.7449 69.1527)" fill="#BBBBBB"/>
<rect x="40.5779" y="67.2425" width="10" height="20" rx="2" transform="rotate(-10 40.5779 67.2425)" fill="#D4D4D4"/>
<path d="M55.9875 62.4946C55.0284 57.0556 49.8418 53.4239 44.4029 54.383L10.9194 60.287C5.48049 61.246 1.84881 66.4326 2.80784 71.8716L6.9754 95.5069C7.93443 100.946 13.121 104.578 18.56 103.619L52.0434 97.7145C57.4824 96.7555 61.114 91.5689 60.155 86.1299L55.9875 62.4946Z" stroke="#DDDDDD" stroke-width="2"/>
<path d="M116.751 29.4356C118.509 25.083 116.406 20.1289 112.054 18.3704L80.5295 5.63373C76.1769 3.87517 71.2228 5.97805 69.4642 10.3306L60.4737 32.5831C58.7151 36.9356 60.818 41.8897 65.1706 43.6483L96.6948 56.3849C101.047 58.1435 106.001 56.0406 107.76 51.688L116.751 29.4356Z" fill="#F9F9F9" stroke="white" stroke-width="3"/>
<path d="M118.141 29.9975C120.21 24.8768 117.736 19.0485 112.616 16.9796L81.0914 4.24296C75.9707 2.17406 70.1424 4.64804 68.0735 9.76873L59.0829 32.0211C57.014 37.1418 59.488 42.9701 64.6087 45.039L96.1329 57.7757C101.254 59.8446 107.082 57.3706 109.151 52.2499L118.141 29.9975Z" stroke="#DDDDDD" stroke-width="2"/>
<path d="M74.7042 25.3902C74.1922 25.1833 73.9419 24.5989 74.1804 24.1007C74.9415 22.5107 75.9612 21.0553 77.2 19.7948C78.6727 18.2961 80.4262 17.1022 82.3603 16.2812C84.2944 15.4602 86.3713 15.0283 88.4724 15.0099C90.2396 14.9945 91.9949 15.272 93.6674 15.829C94.1914 16.0035 94.438 16.5895 94.2311 17.1016L88.8023 30.5384C88.6972 30.7985 88.4011 30.9241 88.141 30.819L74.7042 25.3902Z" fill="#808080" stroke="#F9F9F9" stroke-width="1.5" stroke-linejoin="round"/>
<path d="M94.2311 17.1015C94.438 16.5895 95.0225 16.3393 95.5207 16.5777C98.4657 17.9875 100.91 20.2655 102.523 23.1043C102.796 23.5844 102.587 24.1851 102.091 24.4274L89.5044 30.5735C89.1906 30.7268 88.8532 30.4123 88.984 30.0885L94.2311 17.1015Z" fill="#BBBBBB" stroke="#F9F9F9" stroke-width="1.5" stroke-linejoin="round"/>
<path d="M99.0333 41.7973C99.4169 42.1945 100.053 42.2076 100.425 41.7998C102.47 39.5621 103.841 36.7837 104.37 33.7852C104.898 30.7867 104.559 27.7068 103.403 24.9049C103.192 24.3944 102.591 24.1893 102.094 24.4314L89.241 30.7013C88.9309 30.8526 88.8586 31.2625 89.0984 31.5107L99.0333 41.7973Z" fill="#D4D4D4" stroke="#F9F9F9" stroke-width="1.5" stroke-linejoin="round"/>
<path d="M90.6987 45.8635C90.7756 46.4104 91.2821 46.7946 91.8232 46.6838C94.4667 46.1423 96.9308 44.9406 98.9852 43.1912C99.4057 42.8331 99.4149 42.1974 99.0313 41.8001L89.4265 31.8527C89.1701 31.5873 88.7238 31.8049 88.7752 32.1704L90.6987 45.8635Z" fill="#DDDDDD" stroke="#F9F9F9" stroke-width="1.5" stroke-linejoin="round"/>
<path d="M74.7043 25.3902C74.1922 25.1833 73.6062 25.4299 73.4317 25.9539C72.6527 28.2929 72.4234 30.785 72.7676 33.2352C73.1583 36.0162 74.2741 38.6454 76.0028 40.8586C77.7316 43.0717 80.0124 44.7909 82.616 45.8433C84.91 46.7706 87.3834 47.1514 89.8415 46.962C90.3921 46.9196 90.7733 46.4107 90.6965 45.8638L88.6528 31.2998C88.6276 31.12 88.5084 30.9674 88.3401 30.8994L74.7043 25.3902Z" fill="#E4E4E4" stroke="#F9F9F9" stroke-width="1.5" stroke-linejoin="round"/>
<path d="M85.5844 41.9646C86.3996 37.3415 83.3126 32.9329 78.6895 32.1177L45.2061 26.2136C40.583 25.3985 36.1744 28.4854 35.3592 33.1085L31.1916 56.7439C30.3765 61.367 33.4634 65.7756 38.0865 66.5908L71.57 72.4948C76.1931 73.31 80.6017 70.223 81.4168 65.5999L85.5844 41.9646Z" fill="#F9F9F9" stroke="white" stroke-width="3"/>
<rect x="37.3599" y="47.6772" width="12" height="14" rx="3" transform="rotate(10 37.3599 47.6772)" fill="#BBBBBB"/>
<rect x="54.5344" y="39.5359" width="12" height="25" rx="3" transform="rotate(10 54.5344 39.5359)" fill="#D4D4D4"/>
<rect x="71.0144" y="35.3338" width="11" height="32" rx="3" transform="rotate(10 71.0144 35.3338)" fill="#DDDDDD"/>
<path d="M87.0616 42.225C88.0206 36.7861 84.389 31.5995 78.95 30.6405L45.4666 24.7364C40.0276 23.7774 34.841 27.4091 33.882 32.848L29.7144 56.4834C28.7554 61.9224 32.3871 67.1089 37.826 68.068L71.3095 73.972C76.7484 74.931 81.935 71.2994 82.8941 65.8604L87.0616 42.225Z" stroke="#DDDDDD" stroke-width="2"/>
<path fill-rule="evenodd" clip-rule="evenodd" d="M84.056 81.4349C90.2268 72.2129 88.8727 59.6179 80.4036 51.9463C71.0923 43.5117 56.7063 44.2225 48.2717 53.5338C39.8371 62.8452 40.5479 77.2312 49.8592 85.6658C58.3283 93.3374 70.9953 93.4434 79.5642 86.3936L87.3781 93.4718L91.8699 88.513L84.056 81.4349ZM76.8102 55.9133C83.9306 62.3633 84.4741 73.3643 78.0242 80.4848C71.5742 87.6053 60.5731 88.1488 53.4527 81.6988C46.3322 75.2488 45.7887 64.2478 52.2387 57.1273C58.6887 50.0069 69.6897 49.4633 76.8102 55.9133Z" fill="#8D8D8D"/>
<g opacity="0.65">
<ellipse cx="65.1315" cy="68.8061" rx="17.3958" ry="17.3958" transform="rotate(-47.8285 65.1315 68.8061)" fill="#FCFCFC"/>
<path d="M76.1389 56.6545C82.8501 62.7337 83.3623 73.1023 77.2831 79.8134C71.2039 86.5246 60.8353 87.0368 54.1241 80.9576C47.413 74.8784 46.9007 64.5098 52.9799 57.7987C59.0592 51.0875 69.4278 50.5753 76.1389 56.6545Z" stroke="black" stroke-opacity="0.106" stroke-width="2"/>
</g>
<path d="M83.6711 80.1838C83.1714 80.9958 83.2825 82.0835 84.0246 82.7557L90.4574 88.5828L87.3083 92.0593L80.8755 86.2322C80.1334 85.56 79.04 85.5566 78.2812 86.1339C70.1093 92.3506 58.4157 92.0673 50.5306 84.9246C41.6285 76.8608 40.949 63.1072 49.0129 54.2052C57.0767 45.3032 70.8302 44.6237 79.7323 52.6875C87.6174 59.8302 89.052 71.4389 83.6711 80.1838Z" stroke="#808080" stroke-width="2"/>
<path d="M85.755 93.461C84.2173 91.9582 84.1428 89.5085 85.5863 87.915L86.2634 87.1675C87.7069 85.5739 90.1519 85.4066 91.7991 86.7887L109.649 101.766C111.387 103.225 111.565 105.835 110.042 107.516L108.18 109.572C106.657 111.254 104.042 111.333 102.419 109.748L85.755 93.461Z" fill="#F9F9F9" stroke="white" stroke-width="4"/>
<path d="M85.056 94.1761C83.1339 92.2975 83.0408 89.2355 84.8451 87.2435L85.5222 86.4961C87.3266 84.5041 90.3829 84.295 92.4418 86.0226L110.292 101C112.464 102.823 112.687 106.086 110.783 108.187L108.921 110.244C107.017 112.345 103.748 112.445 101.72 110.463L85.056 94.1761Z" stroke="#DDDDDD" stroke-width="2"/>
</g>
<defs>
<clipPath id="clip0_4344_170747">
<rect width="120" height="120" fill="white"/>
</clipPath>
</defs>
</svg>
